<svg width="65" height="65" viewBox="0 0 65 65" fill="none" xmlns="http://www.w3.org/2000/svg">
<path d="M10.8334 10.8333V54.1666C10.8334 55.6032 11.4041 56.981 12.4199 57.9968C13.4357 59.0126 14.8135 59.5833 16.25 59.5833H48.75C50.1866 59.5833 51.5644 59.0126 52.5802 57.9968C53.596 56.981 54.1667 55.6032 54.1667 54.1666V22.5929C54.1666 21.8713 54.0223 21.157 53.7424 20.4919C53.4624 19.8268 53.0523 19.2244 52.5363 18.72L40.5113 6.96038C39.4994 5.97091 38.1403 5.4168 36.725 5.41663H16.25C14.8135 5.41663 13.4357 5.98731 12.4199 7.00313C11.4041 8.01895 10.8334 9.3967 10.8334 10.8333Z" stroke="black" stroke-width="2" stroke-linecap="round" stroke-linejoin="round"/>
<path d="M37.9167 5.41663V16.25C37.9167 17.6865 38.4874 19.0643 39.5033 20.0801C40.5191 21.0959 41.8968 21.6666 43.3334 21.6666H54.1667" stroke="black" stroke-width="2" stroke-linejoin="round"/>
</svg>
