<svg width="66" height="66" viewBox="0 0 66 66" fill="none" xmlns="http://www.w3.org/2000/svg">
<path d="M41.25 41.25H61.875V45.375H41.25V41.25ZM41.25 49.5H53.625V53.625H41.25V49.5Z" fill="black"/>
<path d="M61.875 35.0625V33C61.8694 27.0101 59.9995 21.1705 56.5246 16.2915C53.0498 11.4125 48.1424 7.73618 42.4835 5.77263C36.8246 3.80908 30.6948 3.65573 24.9448 5.33384C19.1947 7.01196 14.1096 10.4383 10.3952 15.1374C6.68073 19.8366 4.52112 25.5754 4.21604 31.5575C3.91097 37.5396 5.47556 43.4684 8.6927 48.521C11.9098 53.5736 16.62 57.4995 22.1694 59.7538C27.7189 62.0082 33.8325 62.4792 39.6618 61.1016L38.7131 57.088C36.8409 57.5299 34.9236 57.7521 33 57.75C32.6081 57.75 32.2265 57.7108 31.8388 57.6943C27.3629 50.9854 24.92 43.1266 24.8036 35.0625H61.875ZM57.6654 30.9375H45.3234C45.0928 23.3382 43.1363 15.891 39.602 9.15957C44.4752 10.5134 48.8177 13.3253 52.0469 17.2181C55.276 21.1108 57.2352 25.8981 57.6654 30.9375ZM34.1611 8.3057C38.637 15.0146 41.0799 22.8735 41.1963 30.9375H24.8036C24.92 22.8735 27.3629 15.0146 31.8388 8.3057C32.2265 8.29126 32.6081 8.25001 33 8.25001C33.3918 8.25001 33.7734 8.2892 34.1611 8.3057ZM26.3979 9.15957C22.8637 15.891 20.9072 23.3382 20.6765 30.9375H8.33659C8.7665 25.8986 10.7272 21.1117 13.9555 17.2191C17.1839 13.3264 21.5255 10.5141 26.3979 9.15957ZM26.3979 56.8405C21.5255 55.4859 17.1839 52.6737 13.9555 48.781C10.7272 44.8883 8.7665 40.1014 8.33659 35.0625H20.6765C20.9072 42.6618 22.8637 50.1091 26.3979 56.8405Z" fill="black"/>
</svg>
