<svg width="65" height="65" viewBox="0 0 65 65" fill="none" xmlns="http://www.w3.org/2000/svg">
<path d="M42.6562 48.7501H22.3437C21.2663 48.7501 20.233 49.1781 19.4711 49.9399C18.7093 50.7018 18.2812 51.7351 18.2812 52.8126V56.8751C18.2812 57.9525 18.7093 58.9858 19.4711 59.7477C20.233 60.5095 21.2663 60.9376 22.3437 60.9376H42.6562C43.7337 60.9376 44.767 60.5095 45.5289 59.7477C46.2907 58.9858 46.7187 57.9525 46.7187 56.8751V52.8126C46.7187 51.7351 46.2907 50.7018 45.5289 49.9399C44.767 49.1781 43.7337 48.7501 42.6562 48.7501ZM42.6562 56.8751H22.3437V52.8126H42.6562V56.8751ZM58.3111 29.0327L33.9361 4.65771C33.5552 4.27691 33.0386 4.06299 32.5 4.06299C31.9614 4.06299 31.4448 4.27691 31.0639 4.65771L6.6889 29.0327C6.40491 29.3168 6.21152 29.6787 6.13318 30.0726C6.05484 30.4666 6.09507 30.875 6.24877 31.2461C6.40248 31.6172 6.66276 31.9344 6.99672 32.1576C7.33068 32.3808 7.72331 32.5 8.12499 32.5001H18.2812V40.6251C18.2812 41.7025 18.7093 42.7358 19.4711 43.4977C20.233 44.2595 21.2663 44.6876 22.3437 44.6876H42.6562C43.7332 44.6859 44.7656 44.2574 45.5271 43.4959C46.2886 42.7344 46.7171 41.702 46.7187 40.6251V32.5001H56.875C57.2767 32.5 57.6693 32.3808 58.0033 32.1576C58.3372 31.9344 58.5975 31.6172 58.7512 31.2461C58.9049 30.875 58.9451 30.4666 58.8668 30.0726C58.7885 29.6787 58.5951 29.3168 58.3111 29.0327ZM42.6562 28.4376V40.6251H22.3437V28.4376H13.0284L32.5 8.96599L51.9716 28.4376H42.6562Z" fill="black"/>
</svg>
