<svg width="65" height="65" viewBox="0 0 65 65" fill="none" xmlns="http://www.w3.org/2000/svg">
<path d="M19.7763 13H16.4125C16.7871 11.1648 17.7843 9.51536 19.2353 8.33088C20.6863 7.1464 22.5019 6.49962 24.375 6.5H45.5C48.9478 6.5 52.2544 7.86964 54.6924 10.3076C57.1304 12.7456 58.5 16.0522 58.5 19.5V40.625C58.5004 42.4981 57.8536 44.3137 56.6691 45.7647C55.4846 47.2157 53.8352 48.2129 52 48.5875V45.2237C52.9509 44.8876 53.7741 44.2647 54.3562 43.4411C54.9382 42.6175 55.2505 41.6336 55.25 40.625V19.5C55.25 16.9141 54.2228 14.4342 52.3943 12.6057C50.5658 10.7772 48.0859 9.75 45.5 9.75H24.375C23.3664 9.74947 22.3825 10.0618 21.5589 10.6438C20.7353 11.2259 20.1124 12.0491 19.7763 13ZM14.625 16.25C12.4701 16.25 10.4035 17.106 8.87976 18.6298C7.35602 20.1535 6.5 22.2201 6.5 24.375V50.375C6.5 52.5299 7.35602 54.5965 8.87976 56.1202C10.4035 57.644 12.4701 58.5 14.625 58.5H40.625C42.7799 58.5 44.8465 57.644 46.3702 56.1202C47.894 54.5965 48.75 52.5299 48.75 50.375V24.375C48.75 22.2201 47.894 20.1535 46.3702 18.6298C44.8465 17.106 42.7799 16.25 40.625 16.25H14.625ZM9.75 24.375C9.75 23.0821 10.2636 21.8421 11.1779 20.9279C12.0921 20.0136 13.3321 19.5 14.625 19.5H40.625C41.9179 19.5 43.1579 20.0136 44.0721 20.9279C44.9864 21.8421 45.5 23.0821 45.5 24.375V50.375C45.5 51.6679 44.9864 52.9079 44.0721 53.8221C43.1579 54.7364 41.9179 55.25 40.625 55.25H14.625C13.3321 55.25 12.0921 54.7364 11.1779 53.8221C10.2636 52.9079 9.75 51.6679 9.75 50.375V24.375Z" fill="black"/>
</svg>
