<svg width="65" height="65" viewBox="0 0 65 65" fill="none" xmlns="http://www.w3.org/2000/svg">
<path d="M57.552 14.8958C57.0133 14.8958 56.4967 14.6818 56.1157 14.3009C55.7348 13.9199 55.5208 13.4033 55.5208 12.8645C55.5208 12.3258 55.7348 11.8092 56.1157 11.4282C56.4967 11.0473 57.0133 10.8333 57.552 10.8333C58.0908 10.8333 58.6074 11.0473 58.9884 11.4282C59.3693 11.8092 59.5833 12.3258 59.5833 12.8645C59.5833 13.4033 59.3693 13.9199 58.9884 14.3009C58.6074 14.6818 58.0908 14.8958 57.552 14.8958ZM57.552 14.8958V25.052C57.552 26.9425 57.552 27.8877 57.3191 28.6541C57.0609 29.5068 56.5963 30.2826 55.9666 30.9128C55.3369 31.543 54.5614 32.0082 53.7089 32.267C52.9398 32.5 51.9945 32.5 50.1041 32.5M7.44788 50.1041C7.9866 50.1041 8.50325 50.3181 8.88419 50.6991C9.26512 51.08 9.47913 51.5967 9.47913 52.1354C9.47913 52.6741 9.26512 53.1908 8.88419 53.5717C8.50325 53.9526 7.9866 54.1666 7.44788 54.1666C6.90916 54.1666 6.3925 53.9526 6.01157 53.5717C5.63063 53.1908 5.41663 52.6741 5.41663 52.1354C5.41663 51.5967 5.63063 51.08 6.01157 50.6991C6.3925 50.3181 6.90916 50.1041 7.44788 50.1041ZM7.44788 50.1041V39.9479C7.44788 38.0575 7.44788 37.1123 7.68079 36.3458C7.93903 35.4931 8.40359 34.7173 9.03333 34.0871C9.66307 33.4569 10.4385 32.9918 11.291 32.7329C12.0602 32.5 13.0054 32.5 14.8958 32.5M14.8958 7.44788C14.8958 7.9866 14.6818 8.50325 14.3009 8.88419C13.9199 9.26512 13.4033 9.47913 12.8645 9.47913C12.3258 9.47913 11.8092 9.26512 11.4282 8.88419C11.0473 8.50325 10.8333 7.9866 10.8333 7.44788C10.8333 6.90916 11.0473 6.3925 11.4282 6.01157C11.8092 5.63063 12.3258 5.41663 12.8645 5.41663C13.4033 5.41663 13.9199 5.63063 14.3009 6.01157C14.6818 6.3925 14.8958 6.90916 14.8958 7.44788ZM14.8958 7.44788H25.052C26.9425 7.44788 27.8877 7.44788 28.6541 7.68079C29.5071 7.93928 30.2831 8.40426 30.9133 9.03449C31.5436 9.66472 32.0086 10.4407 32.267 11.2937C32.5 12.0602 32.5 13.0054 32.5 14.8958M50.1041 57.552C50.1041 57.0133 50.3181 56.4967 50.6991 56.1157C51.08 55.7348 51.5967 55.5208 52.1354 55.5208C52.6741 55.5208 53.1908 55.7348 53.5717 56.1157C53.9526 56.4967 54.1666 57.0133 54.1666 57.552C54.1666 58.0908 53.9526 58.6074 53.5717 58.9884C53.1908 59.3693 52.6741 59.5833 52.1354 59.5833C51.5967 59.5833 51.08 59.3693 50.6991 58.9884C50.3181 58.6074 50.1041 58.0908 50.1041 57.552ZM50.1041 57.552H39.9479C38.0575 57.552 37.1123 57.552 36.3458 57.3191C35.4931 57.0609 34.7173 56.5963 34.0871 55.9666C33.4569 55.3369 32.9918 54.5614 32.7329 53.7089C32.5 52.9398 32.5 51.9945 32.5 50.1041" stroke="black" stroke-width="1.5" stroke-linejoin="round"/>
<path d="M15.0284 32.3672C15.0284 24.0689 15.0284 19.9197 17.6068 17.3414C20.1851 14.7631 24.3343 14.7631 32.6326 14.7631C40.9309 14.7631 45.0801 14.7631 47.6584 17.3414C50.2368 19.9197 50.2368 24.0689 50.2368 32.3672C50.2368 40.6656 50.2368 44.8147 47.6584 47.3931C45.0801 49.9714 40.9309 49.9714 32.6326 49.9714C24.3343 49.9714 20.1851 49.9714 17.6068 47.3931C15.0284 44.8147 15.0284 40.6656 15.0284 32.3672Z" stroke="black" stroke-width="1.5" stroke-linejoin="round"/>
<path d="M33.8514 39.2708L29.8973 27.0264C29.7601 26.64 29.5047 26.3067 29.1673 26.0738C28.8298 25.8409 28.4276 25.7203 28.0177 25.7291C27.6082 25.7209 27.2066 25.8417 26.8697 26.0746C26.5328 26.3074 26.2778 26.6404 26.1408 27.0264L22.1866 39.2708M40.6223 25.7291V39.2708M23.641 35.2083H32.3944" stroke="black" stroke-width="1.5" stroke-linecap="round" stroke-linejoin="round"/>
</svg>
