<svg width="65" height="65" viewBox="0 0 65 65" fill="none" xmlns="http://www.w3.org/2000/svg">
<path d="M55.5209 51.4583H25.7292V59.5833H55.5209V51.4583Z" stroke="black" stroke-width="2" stroke-linejoin="round"/>
<path d="M25.7292 51.4583C16.9009 41.813 11.8354 36.223 10.5327 34.6883C8.57865 32.3862 9.39928 29.7862 14.2905 29.7862C19.1818 29.7862 22.0025 36.943 25.7292 36.943C25.7517 36.9484 25.7531 27.7956 25.7332 9.48454C25.7325 8.95082 25.837 8.42219 26.0407 7.92885C26.2443 7.43552 26.5432 6.98715 26.9202 6.60938C27.2973 6.2316 27.745 5.93182 28.238 5.72716C28.7309 5.5225 29.2593 5.41698 29.793 5.41663H29.7971C30.3314 5.41645 30.8605 5.52154 31.3542 5.72589C31.8479 5.93024 32.2965 6.22985 32.6744 6.60761C33.0523 6.98537 33.3521 7.43387 33.5566 7.92751C33.7611 8.42114 33.8664 8.95022 33.8664 9.48454V20.3314C44.6618 21.9673 50.5312 22.87 51.4746 23.0398C52.8897 23.2943 55.5208 24.6458 55.5208 28.5295V51.4583H25.7292Z" stroke="black" stroke-width="2" stroke-linejoin="round"/>
</svg>
