<svg width="66" height="66" viewBox="0 0 66 66" fill="none" xmlns="http://www.w3.org/2000/svg">
<path d="M44.5803 30.5414L26.7768 21.6369C26.2735 21.3851 25.7141 21.2662 25.1519 21.2914C24.5896 21.3167 24.0432 21.4853 23.5645 21.7813C23.0858 22.0773 22.6908 22.4907 22.417 22.9824C22.1431 23.4741 21.9996 24.0277 22 24.5905V41.4094C21.9996 41.9722 22.1431 42.5258 22.417 43.0175C22.6908 43.5092 23.0858 43.9226 23.5645 44.2186C24.0432 44.5146 24.5896 44.6832 25.1519 44.7085C25.7141 44.7338 26.2735 44.6148 26.7768 44.3629L44.5803 35.4585C45.0364 35.2298 45.42 34.8788 45.688 34.4446C45.9561 34.0104 46.0981 33.5102 46.0981 32.9999C46.0981 32.4897 45.9561 31.9895 45.688 31.5553C45.42 31.1211 45.0364 30.7701 44.5803 30.5414Z" stroke="black" stroke-width="2" stroke-linecap="round" stroke-linejoin="round"/>
<path d="M33 57.75C46.669 57.75 57.75 46.669 57.75 33C57.75 19.331 46.669 8.25 33 8.25C19.331 8.25 8.25 19.331 8.25 33C8.25 46.669 19.331 57.75 33 57.75Z" stroke="black" stroke-width="2"/>
</svg>
