<svg width="65" height="65" viewBox="0 0 65 65" fill="none" xmlns="http://www.w3.org/2000/svg">
<path d="M10.8333 37.9167C10.8333 32.1703 13.1161 26.6593 17.1794 22.596C21.2427 18.5327 26.7537 16.25 32.5 16.25C38.2464 16.25 43.7574 18.5327 47.8207 22.596C51.8839 26.6593 54.1667 32.1703 54.1667 37.9167" stroke="black" stroke-width="2" stroke-linejoin="round"/>
<path d="M27.0833 40.625C27.0833 39.1885 27.654 37.8107 28.6698 36.7949C29.6857 35.7791 31.0634 35.2084 32.5 35.2084C33.9366 35.2084 35.3143 35.7791 36.3302 36.7949C37.346 37.8107 37.9167 39.1885 37.9167 40.625" stroke="black" stroke-width="2" stroke-linejoin="round"/>
<path d="M35.2083 35.2084L40.625 27.0834M54.1667 37.9167V40.625C54.1667 41.3433 53.8813 42.0322 53.3734 42.5401C52.8655 43.048 52.1766 43.3334 51.4583 43.3334H13.5417C12.8234 43.3334 12.1345 43.048 11.6266 42.5401C11.1187 42.0322 10.8333 41.3433 10.8333 40.625V37.9167" stroke="black" stroke-width="2" stroke-linecap="round" stroke-linejoin="round"/>
</svg>
