<svg width="65" height="65" viewBox="0 0 65 65" fill="none" xmlns="http://www.w3.org/2000/svg">
<path d="M5.41669 54.1667V48.75H32.5V54.1667H5.41669ZM13.5417 46.0417C12.0521 46.0417 10.7774 45.5118 9.71752 44.4519C8.65766 43.3921 8.12683 42.1164 8.12502 40.625V16.25C8.12502 14.7605 8.65585 13.4857 9.71752 12.4259C10.7792 11.366 12.0539 10.8352 13.5417 10.8334H51.4584C52.9479 10.8334 54.2236 11.3642 55.2852 12.4259C56.3469 13.4875 56.8768 14.7623 56.875 16.25H13.5417V40.625H32.5V46.0417H13.5417ZM54.1667 48.75V27.0834H43.3334V48.75H54.1667ZM41.9792 54.1667C40.8507 54.1667 39.892 53.7722 39.1029 52.9832C38.3139 52.1941 37.9185 51.2345 37.9167 50.1042V25.7292C37.9167 24.6007 38.3121 23.642 39.1029 22.853C39.8938 22.0639 40.8525 21.6685 41.9792 21.6667H55.5209C56.6493 21.6667 57.609 22.0621 58.3998 22.853C59.1906 23.6438 59.5852 24.6025 59.5834 25.7292V50.1042C59.5834 51.2327 59.1888 52.1923 58.3998 52.9832C57.6108 53.774 56.6511 54.1685 55.5209 54.1667H41.9792ZM48.75 33.8542C49.3368 33.8542 49.8225 33.6511 50.2071 33.2448C50.5917 32.8386 50.7831 32.3646 50.7813 31.823C50.7813 31.2362 50.589 30.7514 50.2044 30.3686C49.8198 29.9858 49.335 29.7935 48.75 29.7917C48.2084 29.7917 47.7344 29.984 47.3281 30.3686C46.9219 30.7532 46.7188 31.238 46.7188 31.823C46.7188 32.3646 46.9219 32.8386 47.3281 33.2448C47.7344 33.6511 48.2084 33.8542 48.75 33.8542Z" fill="black"/>
</svg>
