<svg width="65" height="65" viewBox="0 0 65 65" fill="none" xmlns="http://www.w3.org/2000/svg">
<path d="M41.7523 26.7465L29.5648 18.6215C29.2589 18.4173 28.9032 18.3001 28.5358 18.2823C28.1684 18.2645 27.8031 18.3468 27.4788 18.5204C27.1545 18.694 26.8834 18.9524 26.6946 19.2681C26.5057 19.5837 26.406 19.9447 26.4062 20.3125V36.5625C26.406 36.9303 26.5057 37.2913 26.6946 37.6069C26.8834 37.9226 27.1545 38.181 27.4788 38.3546C27.8031 38.5282 28.1684 38.6105 28.5358 38.5927C28.9032 38.5749 29.2589 38.4577 29.5648 38.2535L41.7523 30.1285C42.031 29.9431 42.2595 29.6917 42.4175 29.3967C42.5755 29.1017 42.6582 28.7722 42.6582 28.4375C42.6582 28.1028 42.5755 27.7733 42.4175 27.4783C42.2595 27.1833 42.031 26.9319 41.7523 26.7465ZM30.4688 32.7666V24.1211L36.9637 28.4375L30.4688 32.7666ZM54.8438 10.1562H10.1562C9.07881 10.1563 8.0455 10.5843 7.28363 11.3461C6.52176 12.108 6.09375 13.1413 6.09375 14.2188V42.6562C6.09375 43.7337 6.52176 44.767 7.28363 45.5289C8.0455 46.2907 9.07881 46.7188 10.1562 46.7188H54.8438C55.9212 46.7188 56.9545 46.2907 57.7164 45.5289C58.4782 44.767 58.9062 43.7337 58.9062 42.6562V14.2188C58.9062 13.1413 58.4782 12.108 57.7164 11.3461C56.9545 10.5843 55.9212 10.1563 54.8438 10.1562ZM54.8438 42.6562H10.1562V14.2188H54.8438V42.6562ZM58.9062 52.8125C58.9062 53.3512 58.6922 53.8679 58.3113 54.2488C57.9304 54.6297 57.4137 54.8438 56.875 54.8438H8.125C7.58628 54.8438 7.06962 54.6297 6.68869 54.2488C6.30776 53.8679 6.09375 53.3512 6.09375 52.8125C6.09375 52.2738 6.30776 51.7571 6.68869 51.3762C7.06962 50.9953 7.58628 50.7812 8.125 50.7812H56.875C57.4137 50.7812 57.9304 50.9953 58.3113 51.3762C58.6922 51.7571 58.9062 52.2738 58.9062 52.8125Z" fill="black"/>
</svg>
