<svg width="65" height="65" viewBox="0 0 65 65" fill="none" xmlns="http://www.w3.org/2000/svg">
<path d="M54.1667 35.2083C54.1667 41.1937 51.7427 46.6104 47.8211 50.5294L51.6506 54.359C54.1692 51.8467 56.1665 48.8616 57.5278 45.5752C58.8892 42.2887 59.5877 38.7656 59.5833 35.2083C59.5833 20.2502 47.4581 8.125 32.5 8.125C17.5419 8.125 5.41668 20.2502 5.41668 35.2083C5.41229 38.7656 6.11084 42.2887 7.47219 45.5752C8.83354 48.8616 10.8309 51.8467 13.3494 54.359L17.179 50.5294C14.6596 48.0099 12.8004 44.9079 11.7662 41.4983C10.732 38.0886 10.5546 34.4765 11.2497 30.9819C11.9449 27.4874 13.4911 24.2182 15.7515 21.4639C18.0119 18.7096 20.9166 16.5553 24.2084 15.1918C27.5002 13.8282 31.0775 13.2976 34.6234 13.6468C38.1693 13.996 41.5744 15.2142 44.537 17.1937C47.4996 19.1732 49.9283 21.8527 51.608 24.995C53.2877 28.1373 54.1666 31.6453 54.1667 35.2083ZM41.4186 22.4602L29.2311 34.6477L33.0606 38.4773L45.2481 26.2898L41.4186 22.4602Z" fill="black"/>
</svg>
